# xmcd
#
# Track frame offsets: 
#        150
#        17812
#        37253
#        51336
#        71232
#        89609
#        113611
#        127344
#        142883
#        161505
#        180508
#        193678
#        206898
#
# Disc length: 3023 seconds
#
# Revision: 0
# Processed by: cddbd v1.5.2PL0 Copyright (c) Steve Scherf et al.
# Submitted via: ExactAudioCopy v0.95b3
#
DISCID=c70bcd0d
DTITLE=Sherman Doucette - Blowin' Through Town
DYEAR=2009
DGENRE=Blues
TTITLE0=Dig A Little Deeper
TTITLE1=Cotton To Chicago
TTITLE2=Gator Stew
TTITLE3=Need A Little More Love
TTITLE4=Cold Steel
TTITLE5=Blue Smoke
TTITLE6=Love Will Shine
TTITLE7=New Sheriff
TTITLE8=Two To Tangle
TTITLE9=Power Of The Blues
TTITLE10=Blowin' Through Town
TTITLE11=Bb Boogie
TTITLE12=Blues For Christmas
EXTD=
EXTT0=
EXTT1=
EXTT2=
EXTT3=
EXTT4=
EXTT5=
EXTT6=
EXTT7=
EXTT8=
EXTT9=
EXTT10=
EXTT11=
EXTT12=
PLAYORDER=
